<svg width="1167" height="280" viewBox="0 0 1167 280" fill="none" xmlns="http://www.w3.org/2000/svg">
<path d="M0 225.196C63.654 225.083 115.167 173.567 115.288 109.917H167.988C167.971 202.696 92.787 277.883 0 277.904V225.196Z" fill="#00ADEF"/>
<path d="M167.988 52.733C104.333 52.85 52.821 104.367 52.7 168.017H0C0.017 75.233 75.2 0.0500244 167.988 0.0250244V52.733Z" fill="#00ADEF"/>
<path d="M324.217 140.025H266.9C251.992 140.025 244.708 148.333 244.708 157.275C244.708 165.887 250.667 170.525 274.521 176.817C315.925 187.421 332.154 198.683 332.154 228.825C332.154 260.287 309.625 278.842 267.571 278.842C244.375 278.842 220.529 271.55 205.296 263.275L210.588 230.15C227.808 241.408 249.013 249.033 268.887 249.033C286.117 249.033 295.383 242.733 295.383 232.463C295.383 221.2 288.433 216.571 262.929 210.271C224.171 200.333 207.942 189.071 207.942 159.929C207.942 132.433 229.8 109.917 266.9 109.917H324.071L324.217 140.025Z" fill="#7E8083"/>
<path d="M410.463 278.508C378.996 278.508 357.796 266.913 357.796 230.479V56.2621L396.883 50.3041V109.917H431.763L431.642 140.025H396.883V223.854C396.883 236.767 402.846 243.725 418.075 243.725C422.712 243.725 427.029 243.4 430.675 242.408L435.638 275.854C429.346 277.183 422.054 278.508 410.463 278.508Z" fill="#7E8083"/>
<path d="M548.854 196.029C502.8 201.663 491.871 215.242 491.871 230.479C491.871 242.075 499.154 249.033 511.408 249.033C525 249.033 537.917 242.733 548.854 231.804V196.029ZM466.342 140.025V109.917H526.646C568.05 109.917 588.592 125.15 588.592 163.567V275.854H554.475L551.163 254.988C538.246 268.571 521.688 279.167 497.838 279.167C470.671 279.167 452.45 262.608 452.45 234.783C452.45 196.029 484.254 179.133 548.854 172.846V166.733C548.854 149.504 538.908 140.025 521.354 140.025H466.342Z" fill="#7E8083"/>
<path d="M714.342 147.013C704.404 142.375 696.779 139.404 683.204 139.404C662.329 139.404 647.096 156.95 647.096 192.058C647.096 223.2 660.346 243.725 677.9 243.725C692.475 243.725 703.738 235.117 714.342 221.867V147.013ZM719.963 275.854L716.65 253.663C705.396 267.246 689.821 279.167 667.638 279.167C634.171 279.167 607.35 248.375 607.35 194.383C607.35 134.758 640.137 107.604 677.238 107.604C692.475 107.604 704.729 110.917 714.342 114.221V56.5961L754.096 50.3041V275.854H719.963Z" fill="#7E8083"/>
<path d="M929.446 141.375C905.933 141.375 893.346 162.858 893.346 193.554C893.346 223.575 906.267 245.746 929.446 245.746C953.954 245.746 966.546 224.258 966.546 193.554C966.546 163.2 953.296 141.375 929.446 141.375ZM929.446 279.167C886.054 279.167 854.592 247.113 854.592 193.554C854.592 140.008 886.388 107.604 929.779 107.604C973.504 107.604 1005.3 140.008 1005.3 193.554C1005.3 247.113 973.171 279.167 929.446 279.167Z" fill="#7E8083"/>
<path d="M812.517 94.483C825.433 94.483 836.038 85.2 836.038 71.95C836.038 58.375 825.433 48.767 812.517 48.767C799.258 48.767 788.663 58.375 788.663 71.95C788.663 85.2 799.258 94.483 812.517 94.483Z" fill="#7E8083"/>
<path d="M776.367 109.917V140.025H792.308V275.854H832.058V109.917H776.367Z" fill="#7E8083"/>
<path d="M1120.24 106.792C1099.81 106.792 1083.57 117.229 1069.24 130.454V109.917H1013.54V140.025H1029.48V275.854H1069.24V162.1C1080.82 149.854 1093.08 141.904 1105.67 141.904C1120.24 141.904 1126.2 151.504 1126.2 165.421V275.854H1165.96V154.817C1165.96 125.012 1150.05 106.792 1120.24 106.792Z" fill="#7E8083"/>
</svg>
