<svg width="1168" height="280" viewBox="0 0 1168 280" fill="none" xmlns="http://www.w3.org/2000/svg">
<g clip-path="url(#clip0_10_13)">
<path d="M0.5 225.196C64.154 225.083 115.667 173.567 115.788 109.917H168.488C168.471 202.696 93.287 277.883 0.5 277.904V225.196Z" fill="#003357"/>
<path d="M168.488 52.7329C104.833 52.8499 53.321 104.367 53.2 168.017H0.5C0.517 75.2329 75.7 0.0499023 168.488 0.0249023V52.7329Z" fill="#003357"/>
<path d="M324.717 140.025H267.4C252.492 140.025 245.208 148.333 245.208 157.275C245.208 165.887 251.167 170.525 275.021 176.817C316.425 187.421 332.654 198.683 332.654 228.825C332.654 260.287 310.125 278.842 268.071 278.842C244.875 278.842 221.029 271.55 205.796 263.275L211.088 230.15C228.308 241.408 249.513 249.033 269.387 249.033C286.617 249.033 295.883 242.733 295.883 232.463C295.883 221.2 288.933 216.571 263.429 210.271C224.671 200.333 208.442 189.071 208.442 159.929C208.442 132.433 230.3 109.917 267.4 109.917H324.571L324.717 140.025Z" fill="#003357"/>
<path d="M410.963 278.508C379.496 278.508 358.296 266.913 358.296 230.479V56.2617L397.383 50.3037V109.917H432.263L432.142 140.025H397.383V223.854C397.383 236.767 403.346 243.725 418.575 243.725C423.212 243.725 427.529 243.4 431.175 242.408L436.138 275.854C429.846 277.183 422.554 278.508 410.963 278.508Z" fill="#003357"/>
<path d="M549.354 196.029C503.3 201.663 492.371 215.242 492.371 230.479C492.371 242.075 499.654 249.033 511.908 249.033C525.5 249.033 538.417 242.733 549.354 231.804V196.029ZM466.842 140.025V109.917H527.146C568.55 109.917 589.092 125.15 589.092 163.567V275.854H554.975L551.663 254.988C538.746 268.571 522.188 279.167 498.338 279.167C471.171 279.167 452.95 262.608 452.95 234.783C452.95 196.029 484.754 179.133 549.354 172.846V166.733C549.354 149.504 539.408 140.025 521.854 140.025H466.842Z" fill="#003357"/>
<path d="M714.842 147.013C704.904 142.375 697.279 139.404 683.704 139.404C662.829 139.404 647.596 156.95 647.596 192.058C647.596 223.2 660.846 243.725 678.4 243.725C692.975 243.725 704.238 235.117 714.842 221.867V147.013ZM720.463 275.854L717.15 253.663C705.896 267.246 690.321 279.167 668.138 279.167C634.671 279.167 607.85 248.375 607.85 194.383C607.85 134.758 640.637 107.604 677.738 107.604C692.975 107.604 705.229 110.917 714.842 114.221V56.5957L754.596 50.3037V275.854H720.463Z" fill="#003357"/>
<path d="M929.946 141.375C906.433 141.375 893.846 162.858 893.846 193.554C893.846 223.575 906.767 245.746 929.946 245.746C954.454 245.746 967.046 224.258 967.046 193.554C967.046 163.2 953.796 141.375 929.946 141.375ZM929.946 279.167C886.554 279.167 855.092 247.113 855.092 193.554C855.092 140.008 886.888 107.604 930.279 107.604C974.004 107.604 1005.8 140.008 1005.8 193.554C1005.8 247.113 973.671 279.167 929.946 279.167Z" fill="#003357"/>
<path d="M813.017 94.4831C825.933 94.4831 836.538 85.2001 836.538 71.9501C836.538 58.3751 825.933 48.7671 813.017 48.7671C799.758 48.7671 789.163 58.3751 789.163 71.9501C789.163 85.2001 799.758 94.4831 813.017 94.4831Z" fill="#003357"/>
<path d="M776.867 109.917V140.025H792.808V275.854H832.558V109.917H776.867Z" fill="#003357"/>
<path d="M1120.74 106.792C1100.31 106.792 1084.07 117.229 1069.74 130.454V109.917H1014.04V140.025H1029.98V275.854H1069.74V162.1C1081.32 149.854 1093.58 141.904 1106.17 141.904C1120.74 141.904 1126.7 151.504 1126.7 165.421V275.854H1166.46V154.817C1166.46 125.012 1150.55 106.792 1120.74 106.792Z" fill="#003357"/>
</g>
<defs>
<clipPath id="clip0_10_13">
<rect width="1167" height="280" fill="white" transform="translate(0.5)"/>
</clipPath>
</defs>
</svg>
